<?xml version="1.0" encoding="UTF-8"?>
<svg version="1.1" xmlns="http://www.w3.org/2000/svg" width="540" height="540">
<path d="M0 0 C0.68368652 0.05986084 1.36737305 0.11972168 2.07177734 0.18139648 C4.40456594 0.39104167 6.73288688 0.63270552 9.0625 0.875 C11.84025366 1.1432972 14.61845962 1.4065302 17.39672852 1.66943359 C19.22460013 1.84500905 21.05195072 2.02611737 22.87866211 2.21337891 C27.29595047 2.6596036 31.61500383 2.98436466 36.0625 2.875 C36.3925 2.215 36.7225 1.555 37.0625 0.875 C45.46416158 -0.60138783 53.98964634 -0.11051925 62.4375 0.625 C64.14389648 0.76216431 64.14389648 0.76216431 65.88476562 0.90209961 C78.83089519 1.96838546 91.75822096 3.25342467 104.68359375 4.54345703 C109.47423366 5.01352127 114.26769939 5.44971452 119.0625 5.875 C119.47654867 23.9117487 118.28626472 41.81207232 117.04421997 59.79230881 C116.8727467 62.28272609 116.70387103 64.77330796 116.53564453 67.26394653 C114.74054479 93.78521502 112.52575686 120.24696337 110.01351929 146.71034241 C106.10100475 188.09708227 102.52671387 229.49657084 101.77905273 271.07519531 C100.98797247 314.95477785 98.75870833 358.96036848 95 402.6875 C94.92413666 403.59287506 94.84827332 404.49825012 94.77011108 405.43106079 C92.96512744 426.60176422 90.54870488 447.29693079 74.3125 462.6875 C62.54203537 472.29275195 48.04549196 476.30349761 33.0625 474.875 C18.1213834 472.08288922 5.83243968 465.43782546 -4.9375 454.875 C-6.30415798 453.67790885 -7.67873414 452.48977367 -9.0625 451.3125 C-13.22068371 447.697426 -17.08927865 443.81533303 -20.9375 439.875 C-20.6075 439.215 -20.2775 438.555 -19.9375 437.875 C-17.875 437.25 -17.875 437.25 -15.9375 436.875 C-17.30390233 432.15664196 -19.28771902 428.43817001 -21.9375 424.3125 C-28.08497026 414.71837822 -28.08497026 414.71837822 -27.6875 409.75 C-26.9375 406.875 -26.9375 406.875 -24.9375 403.875 C-16.89863406 405.0422358 -9.84881521 413.76595925 -4.421875 419.38671875 C-2.40774394 421.40615016 -0.17420817 423.10917776 2.0625 424.875 C3.72916667 426.54166667 5.39583333 428.20833333 7.0625 429.875 C8.44711798 431.15804369 9.84361494 432.42835381 11.25 433.6875 C11.92417969 434.29207031 12.59835938 434.89664062 13.29296875 435.51953125 C14.95561648 437.07770013 14.95561648 437.07770013 17.0625 436.875 C11.36153756 429.62060071 5.33323512 422.82286796 -1.06298828 416.17944336 C-6.46248275 410.51217401 -10.29058856 405.96139304 -10.9375 397.875 C-8.2975 396.885 -5.6575 395.895 -2.9375 394.875 C-4.40566586 389.95392556 -7.20073818 387.25536649 -10.8125 383.8125 C-11.34230469 383.29623047 -11.87210938 382.77996094 -12.41796875 382.24804688 C-14.68623557 380.03887882 -16.95462877 377.85975259 -19.3203125 375.75390625 C-20.9375 373.875 -20.9375 373.875 -20.9375 369.875 C-17.9375 368.875 -17.9375 368.875 -14.9375 369.875 C-18.07078691 363.19615159 -22.18376403 358.0891552 -27.2421875 352.74609375 C-29.31741302 350.53552744 -31.32497063 348.30309062 -33.3125 346.015625 C-36.8138515 341.99357184 -40.41368448 338.07578119 -44.0625 334.1875 C-44.70123047 333.50196045 -45.33996094 332.8164209 -45.99804688 332.11010742 C-49.20068831 328.69445713 -52.44236211 325.35173463 -55.8359375 322.125 C-56.4429248 321.54322998 -57.04991211 320.96145996 -57.67529297 320.36206055 C-58.82549003 319.26907057 -59.98818908 318.1890462 -61.16455078 317.12426758 C-62.71875 315.64453125 -62.71875 315.64453125 -64.9375 312.875 C-64.78125 310.01171875 -64.78125 310.01171875 -63.9375 307.875 C-56.16161337 309.30426581 -50.36878908 317.33518197 -44.9375 322.6875 C-44.34912354 323.26274414 -43.76074707 323.83798828 -43.15454102 324.43066406 C-41.70909551 325.87333683 -40.31813788 327.37018889 -38.9375 328.875 C-38.9375 329.535 -38.9375 330.195 -38.9375 330.875 C-38.2775 330.875 -37.6175 330.875 -36.9375 330.875 C-36.9375 331.535 -36.9375 332.195 -36.9375 332.875 C-36.34582031 333.14054687 -35.75414062 333.40609375 -35.14453125 333.6796875 C-32.87587477 334.90837579 -31.41902395 336.15887757 -29.625 338 C-28.82642578 338.80824219 -28.82642578 338.80824219 -28.01171875 339.6328125 C-26.19148449 341.60044802 -24.42877538 343.60109423 -22.671875 345.625 C-19.05748031 349.77477182 -15.29415006 353.76518914 -11.5 357.75 C-6.61357253 362.90799536 -2.03722872 368.14788961 2.3046875 373.77734375 C4.65378786 376.58060351 7.32187311 378.83307592 10.12890625 381.1640625 C12.14015436 382.94371235 13.83035274 384.82470324 15.5625 386.875 C21.82088878 394.24570474 21.82088878 394.24570474 30.0625 398.875 C33.25161166 368.01446147 35.29533382 337.10454297 37.15761948 306.14114094 C37.40797917 301.98070339 37.66023055 297.82038336 37.9140625 293.66015625 C37.96318157 292.85466276 38.01230064 292.04916927 38.06290817 291.21926689 C38.64518697 281.73896753 39.33185636 272.28582828 40.31123352 262.8372345 C41.12858855 254.73298249 41.65399953 246.61179715 42.17578125 238.484375 C42.24738181 237.36938251 42.24738181 237.36938251 42.32042885 236.23186493 C42.5702153 232.33003679 42.81768575 228.42806511 43.0642395 224.52603149 C45.32094253 188.85644572 47.91824905 153.22206541 50.76568604 117.59503174 C51.06336958 113.86410138 51.35888866 110.13300523 51.65380859 106.40185547 C52.11630137 100.55490457 52.58249343 94.70826289 53.05245972 88.86190796 C53.22371649 86.73015208 53.39424692 84.5983377 53.56399536 82.46646118 C53.79480249 79.5763406 54.02955795 76.68657007 54.265625 73.796875 C54.33206711 72.95752914 54.39850922 72.11818329 54.46696472 71.25340271 C54.53104019 70.47980911 54.59511566 69.70621552 54.66113281 68.90917969 C54.71489075 68.24585632 54.76864868 67.58253296 54.82403564 66.89910889 C55.10373965 64.52495376 55.56853046 62.21305478 56.0625 59.875 C55.08367104 59.7943631 55.08367104 59.7943631 54.08506775 59.71209717 C-1.40704289 55.13437566 -1.40704289 55.13437566 -23.12057495 52.98986816 C-24.73198235 52.83158102 -26.34373873 52.67680214 -27.95584106 52.52575684 C-35.95937273 51.77124641 -43.41622392 50.86660869 -50.9375 47.875 C-50.9375 47.215 -50.9375 46.555 -50.9375 45.875 C-44.00724434 43.62003612 -37.13065625 42.03739217 -29.9375 40.875 C-33.4025 39.39 -33.4025 39.39 -36.9375 37.875 C-36.9375 37.215 -36.9375 36.555 -36.9375 35.875 C-29.03023955 32.61068005 -21.42127394 30.90006649 -12.9375 29.875 C-14.9175 28.885 -16.8975 27.895 -18.9375 26.875 C-18.9375 26.215 -18.9375 25.555 -18.9375 24.875 C-15.41594036 22.52729357 -13.42978157 22.49830386 -9.25 22.25 C-8.07050781 22.17523438 -6.89101562 22.10046875 -5.67578125 22.0234375 C-4.77214844 21.97445312 -3.86851562 21.92546875 -2.9375 21.875 C-2.6075 20.225 -2.2775 18.575 -1.9375 16.875 C-8.8675 16.38 -8.8675 16.38 -15.9375 15.875 C-15.6075 13.565 -15.2775 11.255 -14.9375 8.875 C-7.54230372 8.58179839 -0.41148548 9.2041665 6.91308594 10.08886719 C15.27632031 11.07257119 23.65331558 11.4972825 32.0625 11.875 C32.0625 10.885 32.0625 9.895 32.0625 8.875 C28.9379262 8.55761233 25.81306494 8.24488826 22.6875 7.9375 C21.74463135 7.8446875 20.8017627 7.751875 19.83032227 7.65625 C12.80983434 6.98768815 5.79964073 6.52450042 -1.24951172 6.30493164 C-4.93823973 6.15341652 -7.79225682 5.90102678 -10.9375 3.875 C-7.54057702 -0.47916062 -5.36547564 -0.5204899 0 0 Z " fill="#FFFFFF" transform="translate(223.9375,32.125)"/>
</svg>
